# xmcd
#
# Track frame offsets: 
#        150
#        12996
#        26264
#        40573
#        52547
#        65697
#        80256
#        93625
#        106744
#        120766
#        135332
#        149604
#        164399
#        179270
#        191306
#        205888
#        219221
#        233797
#        248161
#        263046
#        275141
#        289676
#        303916
#        319357
#
# Disc length: 4444 seconds
#
# Revision: 0
# Processed by: cddbd v1.5.2PL0 Copyright (c) Steve Scherf et al.
# Submitted via: ExactAudioCopyFreeDBPlugin 1.0
#
DISCID=40115a18
DTITLE=Various Artist - Leona Williams and Edna Winston: Complete Recorded Work
DTITLE=s in Chronological Order 1922-1927
DYEAR=1997
DGENRE=
TTITLE0=Leona Williams - Cruel Daddy Blues
TTITLE1=Leona Williams - Decatur Street Blues
TTITLE2=Leona Williams - Achin' Hearted Blues
TTITLE3=Leona Williams - Struttin' Blues
TTITLE4=Leona Williams - It Makes No Difference Now
TTITLE5=Leona Williams - Got to Cool My Doggies Now (Sweet n' Pretty S
TTITLE5=trut)
TTITLE6=Leona Williams - Sugar Blues
TTITLE7=Leona Williams - The Meanest Man in the World (Mylady's Blues)
TTITLE8=Leona Williams - I Wish I Could Shimmy Like My Sister Kate
TTITLE9=Leona Williams - If You Don't Believe I Love You, Look What a 
TTITLE9=Fool I've Been
TTITLE10=Leona Williams - Uncle Bud (Bugle Blues) (Intro: Skeeter Skoo
TTITLE10=t)
TTITLE11=Leona Williams - Mexican Blues
TTITLE12=Leona Williams - I'm Goin' Away
TTITLE13=Leona Williams - Bring It with You When You Come
TTITLE14=Leona Williams - That Teasin' Squeezin' Man o' Mine
TTITLE15=Leona Williams - If Your Man Is Like My Man
TTITLE16=Edna Winston - I Got a Mule to Ride
TTITLE17=Edna Winston - Mama's Gonna Drop Your Curtain
TTITLE18=Edna Winston - Pail in My Hand
TTITLE19=Edna Winston - Peepin' Jim
TTITLE20=Edna Winston - 'Way After One and My Daddy Ain't Come Home Ye
TTITLE20=t
TTITLE21=Edna Winston - Joogie Blues
TTITLE22=Edna Winston - Ever After On
TTITLE23=Edna Winston - Rent Man Blues
EXTD=
EXTT0=
EXTT1=
EXTT2=
EXTT3=
EXTT4=
EXTT5=
EXTT6=
EXTT7=
EXTT8=
EXTT9=
EXTT10=
EXTT11=
EXTT12=
EXTT13=
EXTT14=
EXTT15=
EXTT16=
EXTT17=
EXTT18=
EXTT19=
EXTT20=
EXTT21=
EXTT22=
EXTT23=
PLAYORDER=
